<mxfile host="app.diagrams.net" modified="2023-09-13T15:22:44.377Z" agent="Mozilla/5.0 (Windows NT 10.0; Win64; x64) AppleWebKit/537.36 (KHTML, like Gecko) Chrome/116.0.0.0 Safari/537.36" etag="hzdkaOzvY-5hndRKPzET" version="21.7.5" type="github">
  <diagram id="C5RBs43oDa-KdzZeNtuy" name="Page-1">
    <mxGraphModel dx="1366" dy="790" grid="1" gridSize="10" guides="1" tooltips="1" connect="1" arrows="1" fold="1" page="1" pageScale="1" pageWidth="827" pageHeight="1169" math="0" shadow="0">
      <root>
        <mxCell id="WIyWlLk6GJQsqaUBKTNV-0" />
        <mxCell id="WIyWlLk6GJQsqaUBKTNV-1" parent="WIyWlLk6GJQsqaUBKTNV-0" />
        <mxCell id="BYqjaqUp05EPoA2-a8h6-5" value="" style="edgeStyle=orthogonalEdgeStyle;rounded=0;orthogonalLoop=1;jettySize=auto;html=1;" edge="1" parent="WIyWlLk6GJQsqaUBKTNV-1" source="BYqjaqUp05EPoA2-a8h6-3" target="BYqjaqUp05EPoA2-a8h6-4">
          <mxGeometry relative="1" as="geometry" />
        </mxCell>
        <mxCell id="BYqjaqUp05EPoA2-a8h6-3" value="nimm&lt;br&gt;101" style="rounded=1;whiteSpace=wrap;html=1;" vertex="1" parent="WIyWlLk6GJQsqaUBKTNV-1">
          <mxGeometry x="120" y="80" width="120" height="60" as="geometry" />
        </mxCell>
        <mxCell id="BYqjaqUp05EPoA2-a8h6-7" value="" style="edgeStyle=orthogonalEdgeStyle;rounded=0;orthogonalLoop=1;jettySize=auto;html=1;" edge="1" parent="WIyWlLk6GJQsqaUBKTNV-1" source="BYqjaqUp05EPoA2-a8h6-4" target="BYqjaqUp05EPoA2-a8h6-6">
          <mxGeometry relative="1" as="geometry" />
        </mxCell>
        <mxCell id="BYqjaqUp05EPoA2-a8h6-4" value="Addiere zu&lt;br&gt;106" style="rounded=1;whiteSpace=wrap;html=1;" vertex="1" parent="WIyWlLk6GJQsqaUBKTNV-1">
          <mxGeometry x="120" y="160" width="120" height="60" as="geometry" />
        </mxCell>
        <mxCell id="BYqjaqUp05EPoA2-a8h6-9" value="" style="edgeStyle=orthogonalEdgeStyle;rounded=0;orthogonalLoop=1;jettySize=auto;html=1;" edge="1" parent="WIyWlLk6GJQsqaUBKTNV-1" source="BYqjaqUp05EPoA2-a8h6-6" target="BYqjaqUp05EPoA2-a8h6-8">
          <mxGeometry relative="1" as="geometry" />
        </mxCell>
        <mxCell id="BYqjaqUp05EPoA2-a8h6-6" value="Speicher in&lt;br&gt;106" style="rounded=1;whiteSpace=wrap;html=1;" vertex="1" parent="WIyWlLk6GJQsqaUBKTNV-1">
          <mxGeometry x="120" y="240" width="120" height="60" as="geometry" />
        </mxCell>
        <mxCell id="BYqjaqUp05EPoA2-a8h6-11" value="" style="edgeStyle=orthogonalEdgeStyle;rounded=0;orthogonalLoop=1;jettySize=auto;html=1;" edge="1" parent="WIyWlLk6GJQsqaUBKTNV-1" source="BYqjaqUp05EPoA2-a8h6-8" target="BYqjaqUp05EPoA2-a8h6-10">
          <mxGeometry relative="1" as="geometry" />
        </mxCell>
        <mxCell id="BYqjaqUp05EPoA2-a8h6-8" value="erhÃ¶he um 1&lt;br&gt;105" style="whiteSpace=wrap;html=1;rounded=1;" vertex="1" parent="WIyWlLk6GJQsqaUBKTNV-1">
          <mxGeometry x="120" y="320" width="120" height="60" as="geometry" />
        </mxCell>
        <mxCell id="BYqjaqUp05EPoA2-a8h6-13" value="" style="edgeStyle=orthogonalEdgeStyle;rounded=0;orthogonalLoop=1;jettySize=auto;html=1;" edge="1" parent="WIyWlLk6GJQsqaUBKTNV-1" source="BYqjaqUp05EPoA2-a8h6-10" target="BYqjaqUp05EPoA2-a8h6-12">
          <mxGeometry relative="1" as="geometry" />
        </mxCell>
        <mxCell id="BYqjaqUp05EPoA2-a8h6-10" value="nimm&lt;br&gt;100" style="whiteSpace=wrap;html=1;rounded=1;" vertex="1" parent="WIyWlLk6GJQsqaUBKTNV-1">
          <mxGeometry x="120" y="400" width="120" height="60" as="geometry" />
        </mxCell>
        <mxCell id="BYqjaqUp05EPoA2-a8h6-15" value="" style="edgeStyle=orthogonalEdgeStyle;rounded=0;orthogonalLoop=1;jettySize=auto;html=1;" edge="1" parent="WIyWlLk6GJQsqaUBKTNV-1" source="BYqjaqUp05EPoA2-a8h6-12" target="BYqjaqUp05EPoA2-a8h6-14">
          <mxGeometry relative="1" as="geometry" />
        </mxCell>
        <mxCell id="BYqjaqUp05EPoA2-a8h6-12" value="Subtrahiere von 100&lt;br&gt;die&amp;nbsp;&lt;br&gt;106" style="whiteSpace=wrap;html=1;rounded=1;" vertex="1" parent="WIyWlLk6GJQsqaUBKTNV-1">
          <mxGeometry x="120" y="480" width="120" height="60" as="geometry" />
        </mxCell>
        <mxCell id="BYqjaqUp05EPoA2-a8h6-17" value="" style="edgeStyle=orthogonalEdgeStyle;rounded=0;orthogonalLoop=1;jettySize=auto;html=1;" edge="1" parent="WIyWlLk6GJQsqaUBKTNV-1" source="BYqjaqUp05EPoA2-a8h6-14" target="BYqjaqUp05EPoA2-a8h6-16">
          <mxGeometry relative="1" as="geometry" />
        </mxCell>
        <mxCell id="BYqjaqUp05EPoA2-a8h6-14" value="Speicher Wert in&lt;br&gt;107" style="whiteSpace=wrap;html=1;rounded=1;" vertex="1" parent="WIyWlLk6GJQsqaUBKTNV-1">
          <mxGeometry x="120" y="560" width="120" height="60" as="geometry" />
        </mxCell>
        <mxCell id="BYqjaqUp05EPoA2-a8h6-18" value="Nein" style="edgeStyle=orthogonalEdgeStyle;rounded=0;orthogonalLoop=1;jettySize=auto;html=1;exitX=0;exitY=0.5;exitDx=0;exitDy=0;entryX=0;entryY=0.5;entryDx=0;entryDy=0;" edge="1" parent="WIyWlLk6GJQsqaUBKTNV-1" source="BYqjaqUp05EPoA2-a8h6-16" target="BYqjaqUp05EPoA2-a8h6-3">
          <mxGeometry x="-0.9467" relative="1" as="geometry">
            <Array as="points">
              <mxPoint x="40" y="680" />
              <mxPoint x="40" y="110" />
            </Array>
            <mxPoint as="offset" />
          </mxGeometry>
        </mxCell>
        <mxCell id="BYqjaqUp05EPoA2-a8h6-20" value="Ja" style="edgeStyle=orthogonalEdgeStyle;rounded=0;orthogonalLoop=1;jettySize=auto;html=1;" edge="1" parent="WIyWlLk6GJQsqaUBKTNV-1" source="BYqjaqUp05EPoA2-a8h6-16" target="BYqjaqUp05EPoA2-a8h6-19">
          <mxGeometry relative="1" as="geometry" />
        </mxCell>
        <mxCell id="BYqjaqUp05EPoA2-a8h6-16" value="107 = 0?" style="rhombus;whiteSpace=wrap;html=1;rounded=1;" vertex="1" parent="WIyWlLk6GJQsqaUBKTNV-1">
          <mxGeometry x="140" y="640" width="80" height="80" as="geometry" />
        </mxCell>
        <mxCell id="BYqjaqUp05EPoA2-a8h6-22" value="" style="edgeStyle=orthogonalEdgeStyle;rounded=0;orthogonalLoop=1;jettySize=auto;html=1;" edge="1" parent="WIyWlLk6GJQsqaUBKTNV-1" source="BYqjaqUp05EPoA2-a8h6-19" target="BYqjaqUp05EPoA2-a8h6-21">
          <mxGeometry relative="1" as="geometry" />
        </mxCell>
        <mxCell id="BYqjaqUp05EPoA2-a8h6-19" value="verringre um 1&lt;br&gt;105" style="whiteSpace=wrap;html=1;rounded=1;" vertex="1" parent="WIyWlLk6GJQsqaUBKTNV-1">
          <mxGeometry x="120" y="760" width="120" height="60" as="geometry" />
        </mxCell>
        <mxCell id="BYqjaqUp05EPoA2-a8h6-24" value="" style="edgeStyle=orthogonalEdgeStyle;rounded=0;orthogonalLoop=1;jettySize=auto;html=1;" edge="1" parent="WIyWlLk6GJQsqaUBKTNV-1" source="BYqjaqUp05EPoA2-a8h6-21" target="BYqjaqUp05EPoA2-a8h6-23">
          <mxGeometry relative="1" as="geometry" />
        </mxCell>
        <mxCell id="BYqjaqUp05EPoA2-a8h6-21" value="Speicher in&lt;br&gt;102" style="whiteSpace=wrap;html=1;rounded=1;" vertex="1" parent="WIyWlLk6GJQsqaUBKTNV-1">
          <mxGeometry x="120" y="840" width="120" height="60" as="geometry" />
        </mxCell>
        <mxCell id="BYqjaqUp05EPoA2-a8h6-26" value="" style="edgeStyle=orthogonalEdgeStyle;rounded=0;orthogonalLoop=1;jettySize=auto;html=1;" edge="1" parent="WIyWlLk6GJQsqaUBKTNV-1" source="BYqjaqUp05EPoA2-a8h6-23" target="BYqjaqUp05EPoA2-a8h6-25">
          <mxGeometry relative="1" as="geometry" />
        </mxCell>
        <mxCell id="BYqjaqUp05EPoA2-a8h6-23" value="Nimm&lt;br&gt;106" style="whiteSpace=wrap;html=1;rounded=1;" vertex="1" parent="WIyWlLk6GJQsqaUBKTNV-1">
          <mxGeometry x="120" y="920" width="120" height="60" as="geometry" />
        </mxCell>
        <mxCell id="BYqjaqUp05EPoA2-a8h6-28" value="" style="edgeStyle=orthogonalEdgeStyle;rounded=0;orthogonalLoop=1;jettySize=auto;html=1;entryX=0;entryY=0.5;entryDx=0;entryDy=0;" edge="1" parent="WIyWlLk6GJQsqaUBKTNV-1" source="BYqjaqUp05EPoA2-a8h6-25" target="BYqjaqUp05EPoA2-a8h6-27">
          <mxGeometry relative="1" as="geometry">
            <Array as="points">
              <mxPoint x="350" y="1030" />
              <mxPoint x="350" y="110" />
            </Array>
          </mxGeometry>
        </mxCell>
        <mxCell id="BYqjaqUp05EPoA2-a8h6-25" value="Subtrahiere um&lt;br&gt;101" style="whiteSpace=wrap;html=1;rounded=1;" vertex="1" parent="WIyWlLk6GJQsqaUBKTNV-1">
          <mxGeometry x="120" y="1000" width="120" height="60" as="geometry" />
        </mxCell>
        <mxCell id="BYqjaqUp05EPoA2-a8h6-30" value="" style="edgeStyle=orthogonalEdgeStyle;rounded=0;orthogonalLoop=1;jettySize=auto;html=1;" edge="1" parent="WIyWlLk6GJQsqaUBKTNV-1" source="BYqjaqUp05EPoA2-a8h6-27" target="BYqjaqUp05EPoA2-a8h6-29">
          <mxGeometry relative="1" as="geometry" />
        </mxCell>
        <mxCell id="BYqjaqUp05EPoA2-a8h6-27" value="Speicher in&lt;br&gt;106" style="whiteSpace=wrap;html=1;rounded=1;" vertex="1" parent="WIyWlLk6GJQsqaUBKTNV-1">
          <mxGeometry x="470" y="80" width="120" height="60" as="geometry" />
        </mxCell>
        <mxCell id="BYqjaqUp05EPoA2-a8h6-32" value="" style="edgeStyle=orthogonalEdgeStyle;rounded=0;orthogonalLoop=1;jettySize=auto;html=1;" edge="1" parent="WIyWlLk6GJQsqaUBKTNV-1" source="BYqjaqUp05EPoA2-a8h6-29" target="BYqjaqUp05EPoA2-a8h6-31">
          <mxGeometry relative="1" as="geometry" />
        </mxCell>
        <mxCell id="BYqjaqUp05EPoA2-a8h6-29" value="nimm&lt;br&gt;100" style="whiteSpace=wrap;html=1;rounded=1;" vertex="1" parent="WIyWlLk6GJQsqaUBKTNV-1">
          <mxGeometry x="470" y="160" width="120" height="60" as="geometry" />
        </mxCell>
        <mxCell id="BYqjaqUp05EPoA2-a8h6-34" value="" style="edgeStyle=orthogonalEdgeStyle;rounded=0;orthogonalLoop=1;jettySize=auto;html=1;" edge="1" parent="WIyWlLk6GJQsqaUBKTNV-1" source="BYqjaqUp05EPoA2-a8h6-31" target="BYqjaqUp05EPoA2-a8h6-33">
          <mxGeometry relative="1" as="geometry" />
        </mxCell>
        <mxCell id="BYqjaqUp05EPoA2-a8h6-31" value="Subtrahiere um&lt;br&gt;106" style="whiteSpace=wrap;html=1;rounded=1;" vertex="1" parent="WIyWlLk6GJQsqaUBKTNV-1">
          <mxGeometry x="470" y="240" width="120" height="60" as="geometry" />
        </mxCell>
        <mxCell id="BYqjaqUp05EPoA2-a8h6-36" value="" style="edgeStyle=orthogonalEdgeStyle;rounded=0;orthogonalLoop=1;jettySize=auto;html=1;" edge="1" parent="WIyWlLk6GJQsqaUBKTNV-1" source="BYqjaqUp05EPoA2-a8h6-33" target="BYqjaqUp05EPoA2-a8h6-35">
          <mxGeometry relative="1" as="geometry" />
        </mxCell>
        <mxCell id="BYqjaqUp05EPoA2-a8h6-33" value="Speicher in&lt;br&gt;103" style="whiteSpace=wrap;html=1;rounded=1;" vertex="1" parent="WIyWlLk6GJQsqaUBKTNV-1">
          <mxGeometry x="470" y="320" width="120" height="60" as="geometry" />
        </mxCell>
        <mxCell id="BYqjaqUp05EPoA2-a8h6-35" value="ENDE" style="whiteSpace=wrap;html=1;rounded=1;" vertex="1" parent="WIyWlLk6GJQsqaUBKTNV-1">
          <mxGeometry x="470" y="400" width="120" height="60" as="geometry" />
        </mxCell>
        <mxCell id="BYqjaqUp05EPoA2-a8h6-37" value="5" style="text;html=1;align=center;verticalAlign=middle;resizable=0;points=[];autosize=1;strokeColor=none;fillColor=none;" vertex="1" parent="WIyWlLk6GJQsqaUBKTNV-1">
          <mxGeometry x="250" y="95" width="30" height="30" as="geometry" />
        </mxCell>
        <mxCell id="BYqjaqUp05EPoA2-a8h6-38" value="0. 0+5=5&lt;br&gt;1. 5+5=10&lt;br&gt;2. 10+5=15&lt;br&gt;3. 15+5=20" style="text;html=1;align=left;verticalAlign=middle;resizable=0;points=[];autosize=1;strokeColor=none;fillColor=none;" vertex="1" parent="WIyWlLk6GJQsqaUBKTNV-1">
          <mxGeometry x="250" y="155" width="80" height="70" as="geometry" />
        </mxCell>
        <mxCell id="BYqjaqUp05EPoA2-a8h6-39" value="0. 0+1=1&lt;br&gt;1. 1+1=2&lt;br&gt;2. 2+1=3&lt;br&gt;3. 3+1=4" style="text;html=1;align=left;verticalAlign=middle;resizable=0;points=[];autosize=1;strokeColor=none;fillColor=none;" vertex="1" parent="WIyWlLk6GJQsqaUBKTNV-1">
          <mxGeometry x="255" y="315" width="70" height="70" as="geometry" />
        </mxCell>
        <mxCell id="BYqjaqUp05EPoA2-a8h6-40" value="18" style="text;html=1;align=center;verticalAlign=middle;resizable=0;points=[];autosize=1;strokeColor=none;fillColor=none;" vertex="1" parent="WIyWlLk6GJQsqaUBKTNV-1">
          <mxGeometry x="255" y="415" width="40" height="30" as="geometry" />
        </mxCell>
        <mxCell id="BYqjaqUp05EPoA2-a8h6-41" value="0. 18-5=13&lt;br&gt;1. 18-10=8&lt;br&gt;2. 18-15=3&lt;br&gt;3. 18-20=0" style="text;html=1;align=center;verticalAlign=middle;resizable=0;points=[];autosize=1;strokeColor=none;fillColor=none;" vertex="1" parent="WIyWlLk6GJQsqaUBKTNV-1">
          <mxGeometry x="245" y="475" width="80" height="70" as="geometry" />
        </mxCell>
        <mxCell id="BYqjaqUp05EPoA2-a8h6-42" value="4-1=3" style="text;html=1;align=center;verticalAlign=middle;resizable=0;points=[];autosize=1;strokeColor=none;fillColor=none;" vertex="1" parent="WIyWlLk6GJQsqaUBKTNV-1">
          <mxGeometry x="245" y="778" width="50" height="30" as="geometry" />
        </mxCell>
        <mxCell id="BYqjaqUp05EPoA2-a8h6-43" value="20" style="text;html=1;align=center;verticalAlign=middle;resizable=0;points=[];autosize=1;strokeColor=none;fillColor=none;" vertex="1" parent="WIyWlLk6GJQsqaUBKTNV-1">
          <mxGeometry x="250" y="938" width="40" height="30" as="geometry" />
        </mxCell>
        <mxCell id="BYqjaqUp05EPoA2-a8h6-44" value="20-5=15" style="text;html=1;align=center;verticalAlign=middle;resizable=0;points=[];autosize=1;strokeColor=none;fillColor=none;" vertex="1" parent="WIyWlLk6GJQsqaUBKTNV-1">
          <mxGeometry x="235" y="998" width="70" height="30" as="geometry" />
        </mxCell>
        <mxCell id="BYqjaqUp05EPoA2-a8h6-46" value="18" style="text;html=1;align=center;verticalAlign=middle;resizable=0;points=[];autosize=1;strokeColor=none;fillColor=none;" vertex="1" parent="WIyWlLk6GJQsqaUBKTNV-1">
          <mxGeometry x="610" y="178" width="40" height="30" as="geometry" />
        </mxCell>
        <mxCell id="BYqjaqUp05EPoA2-a8h6-47" value="18-15=3" style="text;html=1;align=center;verticalAlign=middle;resizable=0;points=[];autosize=1;strokeColor=none;fillColor=none;" vertex="1" parent="WIyWlLk6GJQsqaUBKTNV-1">
          <mxGeometry x="595" y="255" width="70" height="30" as="geometry" />
        </mxCell>
      </root>
    </mxGraphModel>
  </diagram>
</mxfile>
